<svg width="96" height="32" viewBox="0 0 96 32" fill="none" xmlns="http://www.w3.org/2000/svg">
  <rect width="96" height="32" rx="8" fill="white"/>
  <path d="M18.166 21.438c-3.23 0-5.845-2.615-5.845-5.844 0-3.23 2.615-5.845 5.845-5.845 1.787 0 3.154.699 4.14 1.611l-1.648 1.648c-.5-.47-1.177-.831-2.492-.831-2.163 0-3.855 1.736-3.855 3.417 0 1.68 1.692 3.417 3.855 3.417 1.407 0 2.207-.566 2.714-1.36H18.166v-2.244h5.089c.05.271.078.595.078.946 0 1.137-.31 2.544-1.31 3.545-.971 1.014-2.214 1.54-3.857 1.54z" fill="#4285F4"/>
  <path d="M32.357 17.65c0 2.235-1.744 3.788-3.885 3.788-2.14 0-3.885-1.553-3.885-3.788 0-2.25 1.744-3.788 3.885-3.788 2.141 0 3.885 1.537 3.885 3.788zm-1.706 0c0-1.397-1.012-2.354-2.178-2.354-1.165 0-2.177.957-2.177 2.354 0 1.383 1.012 2.354 2.177 2.354 1.166 0 2.178-.972 2.178-2.354z" fill="#EA4335"/>
  <path d="M40.721 17.65c0 2.235-1.744 3.788-3.885 3.788-2.14 0-3.885-1.553-3.885-3.788 0-2.25 1.744-3.788 3.885-3.788 2.141 0 3.885 1.537 3.885 3.788zm-1.707 0c0-1.397-1.012-2.354-2.177-2.354s-2.177.957-2.177 2.354c0 1.383 1.012 2.354 2.177 2.354s2.177-.972 2.177-2.354z" fill="#FBBC05"/>
  <path d="M48.758 14.091v6.785c0 2.791-1.648 3.932-3.598 3.932-1.834 0-2.936-1.228-3.352-2.236l1.487-.618c.266.64.92 1.397 1.865 1.397 1.222 0 1.98-.757 1.98-2.184v-.544h-.06c-.383.47-1.124.882-2.059.882-1.958 0-3.754-1.706-3.754-3.775 0-2.082 1.796-3.868 3.754-3.868.934 0 1.676.412 2.059.868h.06v-.64h1.617zm-1.496 3.572c0-1.308-.873-2.367-1.982-2.367-1.124 0-2.067 1.059-2.067 2.367 0 1.294.943 2.341 2.067 2.341 1.109 0 1.982-1.047 1.982-2.341z" fill="#4285F4"/>
  <path d="M51.687 10.303v10.907H50.01V10.303h1.677z" fill="#34A853"/>
  <path d="M58.112 18.842l1.326.89c-.427.634-1.46 1.706-3.237 1.706-2.206 0-3.855-1.706-3.855-3.788 0-2.21 1.664-3.788 3.663-3.788 2.012 0 2.996 1.604 3.318 2.47l.177.442-5.061 2.097c.387.758 1 1.142 1.86 1.142.861 0 1.458-.425 1.81-1.171zm-4.084-1.31l3.384-1.405c-.186-.471-.746-.798-1.408-.798-.847 0-2.024.751-1.976 2.203z" fill="#EA4335"/>
  <path d="M63.982 21V11.08h3.38c1.713 0 2.938 1.182 2.938 2.76s-1.225 2.76-2.938 2.76h-1.786V21h-1.594zm1.594-5.782h1.827c.951 0 1.494-.573 1.494-1.378 0-.817-.543-1.378-1.494-1.378h-1.827v2.756z" fill="#5F6368"/>
  <path d="M74.044 21.225c-1.53 0-2.689-.866-2.689-2.117 0-1.266.964-2.019 2.676-2.117l1.951-.112v-.549c0-.793-.536-1.266-1.435-1.266-.854 0-1.385.411-1.509 1.055h-1.414c.083-1.328 1.22-2.312 2.984-2.312 1.754 0 2.88.926 2.88 2.366V21h-1.455v-1.124h-.035c-.428.756-1.344 1.349-2.454 1.349zm.421-1.209c.854 0 1.497-.543 1.497-1.315v-.531l-1.747.109c-.873.057-1.356.375-1.356.899 0 .53.496.838 1.606.838z" fill="#5F6368"/>
  <path d="M79.749 23.693v-1.252c.095.025.312.025.414.025.593 0 .916-.25 1.111-.88l.118-.375-2.595-7.229h1.621l1.789 5.856h.03l1.789-5.856h1.578l-2.689 7.587c-.612 1.733-1.316 2.292-2.804 2.292-.1 0-.263-.007-.362-.018z" fill="#5F6368"/>
</svg>
