<svg width="96" height="32" viewBox="0 0 96 32" fill="none" xmlns="http://www.w3.org/2000/svg">
  <rect width="96" height="32" rx="8" fill="white"/>
  <rect x="6" y="6" width="20" height="20" rx="10" fill="#5F259F"/>
  <path d="M18.453 11.102h-1.46c-.082 0-.153.063-.153.153v2.255H14.58a.152.152 0 0 0-.152.153v1.056c0 .09.07.153.153.153h2.26v6.027c0 .09.07.153.152.153h1.46a.152.152 0 0 0 .153-.153v-6.027h2.26a.152.152 0 0 0 .153-.153v-1.056a.152.152 0 0 0-.153-.153h-2.26v-2.255a.152.152 0 0 0-.153-.153z" fill="white"/>
  <path d="M20.033 10.51l-1.23-1.229a.154.154 0 0 0-.108-.045h-3.362a.152.152 0 0 0-.108.26l1.23 1.229c.028.028.067.045.108.045h3.362a.153.153 0 0 0 .108-.26z" fill="white"/>
  <path d="M33.654 20V12.2h3.224c1.698 0 2.79 1.04 2.79 2.638 0 1.611-1.105 2.65-2.829 2.65h-1.701V20h-1.484zm1.484-3.813h1.311c1.066 0 1.68-.489 1.68-1.337 0-.854-.614-1.343-1.673-1.343h-1.318v2.68z" fill="#311B92"/>
  <path d="M40.87 20v-8.07h1.428v3.116h.033c.307-.57.894-.932 1.68-.932 1.305 0 2.042.84 2.042 2.256V20h-1.428v-3.343c0-.86-.357-1.311-1.118-1.311-.782 0-1.209.515-1.209 1.402V20H40.87z" fill="#311B92"/>
  <path d="M49.99 20.115c-1.766 0-2.92-1.164-2.92-2.969 0-1.818 1.163-3.026 2.912-3.026 1.747 0 2.872 1.176 2.872 2.944v.442h-4.34v.083c.025.833.595 1.37 1.488 1.37.62 0 1.092-.264 1.265-.695h1.466c-.217 1.086-1.203 1.851-2.743 1.851zm-1.46-3.573h2.869c-.032-.746-.545-1.247-1.393-1.247-.835 0-1.357.507-1.476 1.247z" fill="#311B92"/>
  <path d="M56.53 20.115c-1.767 0-2.92-1.164-2.92-2.969 0-1.818 1.163-3.026 2.912-3.026 1.747 0 2.872 1.176 2.872 2.944v.442h-4.34v.083c.025.833.595 1.37 1.488 1.37.62 0 1.092-.264 1.265-.695h1.466c-.217 1.086-1.203 1.851-2.743 1.851zm-1.46-3.573h2.869c-.032-.746-.545-1.247-1.393-1.247-.835 0-1.357.507-1.476 1.247z" fill="#311B92"/>
  <path d="M63.086 20.115c-1.766 0-2.92-1.164-2.92-2.969 0-1.818 1.163-3.026 2.912-3.026 1.747 0 2.872 1.176 2.872 2.944v.442h-4.34v.083c.025.833.595 1.37 1.488 1.37.62 0 1.092-.264 1.265-.695h1.466c-.217 1.086-1.203 1.851-2.743 1.851zm-1.46-3.573h2.869c-.032-.746-.545-1.247-1.393-1.247-.835 0-1.357.507-1.476 1.247z" fill="#311B92"/>
</svg>
